<?xml version="1.0" encoding="UTF-8"?>
<svg xmlns="http://www.w3.org/2000/svg" width="128" height="128" viewBox="0 0 128 128">
<defs><linearGradient id="og" x1="0" y1="0" x2="0" y2="1"><stop offset="0" stop-color="#f9c440"/><stop offset="1" stop-color="#e08a00"/></linearGradient><linearGradient id="kn" x1="0" y1="0" x2="0" y2="1"><stop offset="0" stop-color="#ffffff"/><stop offset="1" stop-color="#deddda"/></linearGradient><linearGradient id="ring" x1="0" y1="0" x2="0" y2="1"><stop offset="0" stop-color="#1c71d8"/><stop offset="1" stop-color="#1a5fb4"/></linearGradient><filter id="b" x="-30%" y="-30%" width="160%" height="170%"><feGaussianBlur stdDeviation="1.8"/></filter><filter id="k" x="-30%" y="-30%" width="160%" height="170%"><feGaussianBlur stdDeviation="2"/></filter></defs><circle cx="64" cy="66.5" r="56" fill="#000" opacity=".3" filter="url(#b)"/><circle cx="64" cy="64" r="56" fill="url(#og)"/><circle cx="64" cy="64" r="55.5" fill="none" stroke="#fff" stroke-opacity=".35"/><path d="M30.8 97.2 L27.2 100.8" stroke="#fff" stroke-opacity="0.95" stroke-width="3" stroke-linecap="round"/><path d="M20.6 82.0 L16.0 83.9" stroke="#fff" stroke-opacity="0.95" stroke-width="3" stroke-linecap="round"/><path d="M17.0 64.0 L12.0 64.0" stroke="#fff" stroke-opacity="0.95" stroke-width="3" stroke-linecap="round"/><path d="M20.6 46.0 L16.0 44.1" stroke="#fff" stroke-opacity="0.95" stroke-width="3" stroke-linecap="round"/><path d="M30.8 30.8 L27.2 27.2" stroke="#fff" stroke-opacity="0.95" stroke-width="3" stroke-linecap="round"/><path d="M46.0 20.6 L44.1 16.0" stroke="#fff" stroke-opacity="0.95" stroke-width="3" stroke-linecap="round"/><path d="M64.0 17.0 L64.0 12.0" stroke="#fff" stroke-opacity="0.95" stroke-width="3" stroke-linecap="round"/><path d="M82.0 20.6 L83.9 16.0" stroke="#fff" stroke-opacity="0.95" stroke-width="3" stroke-linecap="round"/><path d="M97.2 30.8 L100.8 27.2" stroke="#fff" stroke-opacity="0.95" stroke-width="3" stroke-linecap="round"/><path d="M107.4 46.0 L112.0 44.1" stroke="#7a4400" stroke-opacity="0.45" stroke-width="3" stroke-linecap="round"/><path d="M111.0 64.0 L116.0 64.0" stroke="#7a4400" stroke-opacity="0.45" stroke-width="3" stroke-linecap="round"/><path d="M107.4 82.0 L112.0 83.9" stroke="#7a4400" stroke-opacity="0.45" stroke-width="3" stroke-linecap="round"/><path d="M97.2 97.2 L100.8 100.8" stroke="#7a4400" stroke-opacity="0.45" stroke-width="3" stroke-linecap="round"/><circle cx="64" cy="67" r="34" fill="#000" opacity=".3" filter="url(#k)"/><circle cx="64" cy="64" r="34" fill="url(#kn)"/><circle cx="64" cy="64" r="23.1" fill="none" stroke="#c0bfbc" stroke-width="1.5"/><path d="M64 64 L84 38" stroke="#1c71d8" stroke-width="6" stroke-linecap="round"/><circle cx="64" cy="64" r="4" fill="#c0bfbc"/></svg>